<?xml version="1.0" standalone="no"?><!DOCTYPE svg PUBLIC "-//W3C//DTD SVG 1.1//EN" "http://www.w3.org/Graphics/SVG/1.1/DTD/svg11.dtd"><svg t="1703817542584" class="icon" viewBox="0 0 1024 1024" version="1.1" xmlns="http://www.w3.org/2000/svg" p-id="27444" width="48" height="48" xmlns:xlink="http://www.w3.org/1999/xlink"><path d="M860.1088 420.608c-4.9664-167.168-141.9776-301.2096-310.3744-301.2096-160.3072 0-292.1984 121.4464-308.7872 277.2992-115.4048 19.4048-203.3664 119.7568-203.3664 240.6912 0 134.8608 109.312 244.1216 244.1216 244.1216h466.176c134.8608 0 244.1216-109.312 244.1216-244.1216 0-94.3616-53.5552-176.128-131.8912-216.7808z" fill="#ffffff" p-id="27445" data-spm-anchor-id="a313x.search_index.0.i25.af3c3a81a1tHRb" class="selected"></path><path d="M634.368 505.6h-55.4496v172.2368c0 21.1968-17.2032 38.4-38.4 38.4s-38.4-17.2032-38.4-38.4V505.6H448.1536c-17.8688 0-27.904-20.6336-16.8448-34.6624l93.0816-118.4256a21.43744 21.43744 0 0 1 33.6896 0l93.0816 118.4256c11.1104 14.0288 1.0752 34.6624-16.7936 34.6624z" fill="#725AC1" p-id="27446" data-spm-anchor-id="a313x.search_index.0.i22.af3c3a81a1tHRb" class="selected"></path></svg>