<?xml version="1.0" standalone="no"?><!DOCTYPE svg PUBLIC "-//W3C//DTD SVG 1.1//EN" "http://www.w3.org/Graphics/SVG/1.1/DTD/svg11.dtd"><svg t="1703818704525" class="icon" viewBox="0 0 1024 1024" version="1.1" xmlns="http://www.w3.org/2000/svg" p-id="37389" xmlns:xlink="http://www.w3.org/1999/xlink" width="48" height="48"><path d="M512 512m-512 0a512 512 0 1 0 1024 0 512 512 0 1 0-1024 0Z" fill="#ffffff" p-id="37390" data-spm-anchor-id="a313x.search_index.0.i59.af3c3a81a1tHRb" class=""></path><path d="M528.680421 862.315789s-3.610947 0 0 0l-71.949474-39.801263v-3.610947c7.194947-14.470737 68.338526-144.707368 61.170527-141.123368-7.221895 7.248842-50.391579 54.272-82.782316 101.322105l-17.973895 25.330526s-71.949474-50.661053-97.145263-79.602526c14.389895-21.719579 93.534316-123.014737 93.534316-123.014737l-133.12 79.602526c-7.194947-7.248842-50.391579-54.272-64.754527-79.602526 10.778947-10.859789 82.728421-72.353684 82.728422-72.353684L197.685895 565.625263 161.684211 496.909474v-3.637895c18.000842-3.610947 165.510737-32.552421 233.87621-83.213474h7.194947l205.069474 206.228211s3.610947 3.610947 0 7.221895c-7.194947 18.108632-64.754526 112.181895-79.144421 238.807578z m266.24-564.412631l-129.509053 130.236631v3.610948c28.779789 50.661053 28.779789 108.544-14.389894 151.983158h-3.610948l-205.069473-206.255158v-3.610948c43.169684-43.412211 100.729263-43.412211 151.093894-14.470736h3.610948l129.509052-130.263579c18.000842-18.054737 50.391579-18.054737 68.365474 0 18.000842 18.108632 18.000842 50.661053 0 68.769684z" fill="#725AC1" p-id="37391" data-spm-anchor-id="a313x.search_index.0.i60.af3c3a81a1tHRb" class="selected"></path></svg>